<svg viewBox="0 0 378 367" fill="none" xmlns="http://www.w3.org/2000/svg">
<circle cx="234" cy="191" r="65" fill="#EEEEEE"/>
<g clip-path="url(#clip0_515_681)">
<path d="M17.1818 367H257.727C267.2 367 274.909 359.282 274.909 349.797V263.781C274.909 263.667 274.852 263.575 274.84 263.46C275.47 263.059 276.123 262.68 276.742 262.256L368.218 353.845C368.745 354.394 369.377 354.831 370.075 355.133C370.773 355.434 371.525 355.594 372.285 355.601C373.045 355.609 373.8 355.465 374.504 355.178C375.208 354.89 375.848 354.465 376.387 353.928C376.925 353.39 377.351 352.751 377.64 352.046C377.929 351.342 378.075 350.587 378.07 349.826C378.064 349.064 377.907 348.312 377.608 347.612C377.309 346.912 376.874 346.278 376.328 345.748L285.688 254.996C293.125 248.048 299.057 239.643 303.114 230.303C307.171 220.963 309.268 210.888 309.273 200.703C309.262 188.188 306.101 175.878 300.083 164.91C294.065 153.941 285.384 144.668 274.84 137.946C274.852 137.831 274.909 137.74 274.909 137.625V108.953C274.909 108.758 274.817 108.598 274.806 108.414C274.783 108.15 274.714 107.921 274.657 107.669C274.477 106.872 274.125 106.124 273.626 105.478C273.546 105.375 273.557 105.249 273.477 105.146L181.841 1.92675C181.807 1.89234 181.761 1.89234 181.726 1.85794C181.029 1.12457 180.146 0.593584 179.172 0.321125C178.954 0.252313 178.76 0.229375 178.531 0.194969C178.198 0.137625 177.889 0 177.545 0H17.1818C7.70891 0 0 7.71847 0 17.2031V349.797C0 359.282 7.70891 367 17.1818 367ZM297.818 200.703C297.818 235.488 269.548 263.781 234.818 263.781C200.088 263.781 171.818 235.488 171.818 200.703C171.818 165.918 200.088 137.625 234.818 137.625C269.548 137.625 297.818 165.918 297.818 200.703ZM183.273 20.8158L256.433 103.219H189C186.48 103.219 183.273 98.4019 183.273 94.6172V20.8158ZM11.4545 17.2031C11.4545 15.6823 12.058 14.2237 13.132 13.1483C14.2061 12.0729 15.6629 11.4688 17.1818 11.4688H171.818V94.6172C171.818 103.895 179.321 114.688 189 114.688H263.455V131.902C249.619 126.107 234.354 124.648 219.673 127.718C204.993 130.787 191.586 138.24 181.222 149.094H63C61.481 149.094 60.0243 149.698 58.9502 150.773C57.8761 151.849 57.2727 153.307 57.2727 154.828C57.2727 156.349 57.8761 157.808 58.9502 158.883C60.0243 159.958 61.481 160.562 63 160.562H172.185C165.546 170.894 161.586 182.719 160.661 194.969H63C61.481 194.969 60.0243 195.573 58.9502 196.648C57.8761 197.724 57.2727 199.182 57.2727 200.703C57.2727 202.224 57.8761 203.683 58.9502 204.758C60.0243 205.833 61.481 206.438 63 206.438H160.65C161.58 218.686 165.54 230.51 172.173 240.844H63C61.481 240.844 60.0243 241.448 58.9502 242.523C57.8761 243.599 57.2727 245.057 57.2727 246.578C57.2727 248.099 57.8761 249.558 58.9502 250.633C60.0243 251.708 61.481 252.312 63 252.312H180.409C180.65 252.312 180.856 252.209 181.096 252.175C191.456 263.074 204.878 270.566 219.585 273.659C234.292 276.751 249.591 275.299 263.455 269.493V349.797C263.455 351.318 262.851 352.776 261.777 353.852C260.703 354.927 259.246 355.531 257.727 355.531H17.1818C13.9745 355.531 11.4545 353.008 11.4545 349.797V17.2031Z" fill="var(--grey-background-color)"/>
<path d="M63 114.688H131.727C133.246 114.688 134.703 114.083 135.777 113.008C136.851 111.933 137.455 110.474 137.455 108.953C137.455 107.432 136.851 105.974 135.777 104.898C134.703 103.823 133.246 103.219 131.727 103.219H63C61.481 103.219 60.0243 103.823 58.9502 104.898C57.8761 105.974 57.2727 107.432 57.2727 108.953C57.2727 110.474 57.8761 111.933 58.9502 113.008C60.0243 114.083 61.481 114.688 63 114.688ZM63 298.188H211.909C213.428 298.188 214.885 297.583 215.959 296.508C217.033 295.433 217.636 293.974 217.636 292.453C217.636 290.932 217.033 289.474 215.959 288.398C214.885 287.323 213.428 286.719 211.909 286.719H63C61.481 286.719 60.0243 287.323 58.9502 288.398C57.8761 289.474 57.2727 290.932 57.2727 292.453C57.2727 293.974 57.8761 295.433 58.9502 296.508C60.0243 297.583 61.481 298.188 63 298.188Z" fill="var(--grey-background-color)"/>
</g>
<g clip-path="url(#clip1_515_681)">
<path d="M268 219.195L248.786 200L268 180.805L255.195 168L236 187.205L216.795 168L204 180.805L223.195 200L204 219.195L216.795 232L236 212.795L255.195 232L268 219.195Z" fill="var(--light-grey-color)"/>
</g>
<defs>
<clipPath id="clip0_515_681">
<rect width="378" height="367" fill="white"/>
</clipPath>
<clipPath id="clip1_515_681">
<rect width="64" height="64" fill="white" transform="translate(204 168)"/>
</clipPath>
</defs>
</svg>
