<svg viewBox="0 0 1440 617" fill="none" xmlns="http://www.w3.org/2000/svg">
    <path d="M0 419.941C0 419.941 676 671.5 792 435.5C908 199.5 1055 433.5 1234.5 382.5C1414 331.5 1440 131.5 1440 131.5V616.5H0V419.941Z" fill="var(--primary-color)" />
    <g clip-path="url(#clip0_0_1)">
        <path d="M1367 196.118C1367 270.756 1319.65 334.35 1253.34 358.548C1243.25 362.237 1232.83 364.968 1222.23 366.705C1193.07 371.484 1163.17 368.771 1135.34 358.821C1068.6 334.822 1020.91 271.013 1020.94 196.081C1020.94 100.64 1098.41 23.2358 1193.97 23.2358C1230.09 23.1833 1265.3 34.4722 1294.65 55.5071C1338.46 86.8669 1367 138.16 1367 196.118Z" fill="#E5E5E5" />
        <path d="M1253.34 358.548C1243.25 362.237 1232.83 364.968 1222.23 366.705C1193.07 371.484 1163.17 368.771 1135.34 358.821L1143.33 326.785L1143.81 324.863L1160.12 324.926L1242.04 325.219L1243.09 328.315L1253.34 358.548Z" fill="#2F2E41" />
        <path d="M966.3 0H816V169.925H966.3V0Z" fill="#E6E6E6" />
        <path d="M963.357 3.59491H818.68V166.33H963.357V3.59491Z" fill="white" />
        <path d="M891.15 160.544C895.629 160.544 899.26 156.916 899.26 152.441C899.26 147.966 895.629 144.338 891.15 144.338C886.671 144.338 883.04 147.966 883.04 152.441C883.04 156.916 886.671 160.544 891.15 160.544Z" fill="#E6E6E6" />
        <path d="M889.78 61.1997H843.2V65.9608H889.78V61.1997Z" fill="#E6E6E6" />
        <path d="M913.502 75.4667H843.2V80.2278H913.502V75.4667Z" fill="var(--secondary-color)" />
        <path d="M906.601 89.8233H843.2V94.5843H906.601V89.8233Z" fill="#E6E6E6" />
        <path d="M941.105 103.801H843.2V108.562H941.105V103.801Z" fill="var(--secondary-color)" />
        <path d="M924.008 117.112H844.218V121.873H924.008V117.112Z" fill="#E6E6E6" />
        <path d="M1029.72 276.502C1030.29 277.088 1030.82 277.719 1031.29 278.388L1104.75 276.592L1113.32 260.944L1138.65 270.781L1126.17 299.955C1125.16 302.311 1123.42 304.278 1121.19 305.559C1118.97 306.84 1116.4 307.366 1113.85 307.059L1030.85 297.041C1028.89 299.517 1026.22 301.339 1023.2 302.265C1020.18 303.191 1016.95 303.176 1013.94 302.222C1010.93 301.269 1008.28 299.422 1006.35 296.928C1004.41 294.433 1003.28 291.41 1003.11 288.258C1002.94 285.107 1003.73 281.978 1005.38 279.287C1007.03 276.596 1009.46 274.471 1012.35 273.195C1015.24 271.918 1018.45 271.55 1021.55 272.141C1024.65 272.731 1027.5 274.251 1029.72 276.499L1029.72 276.502Z" fill="#9F616A" />
        <path d="M1128.6 187.153L1162.98 175.895L1173.08 162.059L1222.22 164.965L1229.43 181.111L1255.63 193.481L1251.61 268.2L1244.72 338.126C1209.29 319.799 1143.19 333.772 1142.61 333.999L1128.6 187.153Z" fill="var(--secondary-color)" />
        <path d="M1135.95 288.289L1100.98 274.31L1101.13 273.688C1101.28 273.059 1116.16 210.917 1118.14 200.931C1120.2 190.527 1127.72 187.651 1128.04 187.534L1128.27 187.448L1142.11 191.657L1148.19 239.373L1135.95 288.289Z" fill="var(--secondary-color)" />
        <path d="M1211.46 335.053C1212.28 335.033 1213.1 335.078 1213.91 335.188L1262.54 280.142L1256.88 263.228L1281.32 251.361L1294.25 280.339C1295.29 282.68 1295.55 285.296 1294.98 287.795C1294.41 290.294 1293.04 292.54 1291.08 294.197L1227.3 348.195C1227.79 351.314 1227.31 354.506 1225.94 357.347C1224.56 360.189 1222.35 362.545 1219.61 364.103C1216.86 365.66 1213.7 366.345 1210.56 366.067C1207.41 365.788 1204.42 364.559 1201.99 362.543C1199.56 360.527 1197.81 357.82 1196.95 354.781C1196.1 351.743 1196.19 348.517 1197.22 345.532C1198.25 342.548 1200.16 339.947 1202.7 338.075C1205.25 336.203 1208.3 335.149 1211.46 335.053Z" fill="#9F616A" />
        <path d="M1258.66 285.5L1238.37 237.824L1246.28 204.614L1254.81 193.853C1255.43 193.586 1256.11 193.452 1256.78 193.458C1257.46 193.464 1258.13 193.611 1258.75 193.89C1261.9 195.154 1264.57 199.029 1266.71 205.407L1285.72 259.513L1258.66 285.5Z" fill="var(--secondary-color)" />
        <path d="M1153.41 144.392V108.449C1153.39 102.124 1154.61 95.8564 1157.02 90.0048C1159.42 84.1531 1162.95 78.8317 1167.41 74.3444C1171.88 69.8571 1177.18 66.2917 1183.02 63.8519C1188.86 61.412 1195.12 60.1454 1201.45 60.1245C1207.78 60.1035 1214.06 61.3286 1219.91 63.7297C1225.77 66.1309 1231.1 69.6611 1235.59 74.1188C1240.08 78.5765 1243.65 83.8743 1246.09 89.7099C1248.53 95.5455 1249.8 101.805 1249.82 108.13C1249.82 108.236 1249.82 108.342 1249.82 108.449V144.392C1249.82 146.108 1249.14 147.752 1247.92 148.965C1246.71 150.178 1245.06 150.861 1243.34 150.862H1159.88C1158.17 150.861 1156.52 150.178 1155.31 148.965C1154.09 147.752 1153.41 146.108 1153.41 144.392Z" fill="#2F2E41" />
        <path d="M1191.71 150.025C1211.23 150.025 1227.05 134.215 1227.05 114.713C1227.05 95.21 1211.23 79.4001 1191.71 79.4001C1172.19 79.4001 1156.37 95.21 1156.37 114.713C1156.37 134.215 1172.19 150.025 1191.71 150.025Z" fill="#9F616A" />
        <path d="M1142 111.324C1142.02 101.223 1146.04 91.5385 1153.19 84.3957C1160.34 77.2529 1170.03 73.2351 1180.14 73.2237H1187.33C1197.44 73.2351 1207.14 77.2529 1214.28 84.3957C1221.43 91.5385 1225.45 101.223 1225.47 111.324V112.043H1210.26L1205.07 97.5315L1204.04 112.043H1196.18L1193.56 104.722L1193.04 112.043H1142V111.324Z" fill="#2F2E41" />
        <path d="M1188.23 154.905C1187.52 153.939 1187.09 152.791 1187 151.594C1186.91 150.397 1187.16 149.198 1187.72 148.137C1195.35 133.648 1206.02 106.873 1191.85 90.3615L1190.84 89.1765H1231.97V150.885L1194.61 157.473C1194.23 157.54 1193.84 157.573 1193.46 157.574C1192.44 157.574 1191.43 157.332 1190.53 156.868C1189.62 156.405 1188.83 155.732 1188.23 154.906L1188.23 154.905Z" fill="#2F2E41" />
        <path d="M891.02 13.2344C887.609 13.2343 884.275 14.2447 881.439 16.1379C878.603 18.0311 876.392 20.7221 875.087 23.8706C873.781 27.0191 873.439 30.4837 874.105 33.8262C874.77 37.1688 876.412 40.2391 878.824 42.6491C881.236 45.059 884.309 46.7003 887.654 47.3653C890.999 48.0303 894.467 47.6893 897.618 46.3853C900.769 45.0812 903.463 42.8728 905.358 40.0393C907.253 37.2058 908.265 33.8744 908.265 30.4664V30.4655C908.265 28.2027 907.819 25.962 906.952 23.8715C906.085 21.7809 904.815 19.8813 903.214 18.2813C901.612 16.6812 899.711 15.412 897.619 14.5461C895.526 13.6801 893.284 13.2344 891.019 13.2344H891.02ZM891.02 18.4033C892.043 18.4033 893.043 18.7064 893.894 19.2744C894.745 19.8423 895.408 20.6496 895.8 21.5941C896.191 22.5386 896.294 23.5779 896.094 24.5805C895.894 25.5832 895.402 26.5042 894.678 27.2271C893.955 27.9499 893.033 28.4422 892.029 28.6417C891.026 28.8411 889.986 28.7388 889.04 28.3476C888.095 27.9563 887.287 27.2938 886.719 26.4438C886.15 25.5938 885.847 24.5945 885.847 23.5722C885.847 22.2013 886.392 20.8866 887.362 19.9172C888.332 18.9479 889.648 18.4033 891.02 18.4033ZM891.02 43.2885C888.976 43.2792 886.966 42.7717 885.162 41.8103C883.359 40.8488 881.818 39.4623 880.673 37.7711C880.756 34.3248 887.571 32.4279 891.02 32.4279C894.469 32.4279 901.284 34.3248 901.368 37.7711C900.221 39.4611 898.679 40.8466 896.876 41.8079C895.074 42.7693 893.064 43.2774 891.02 43.2885Z" fill="var(--secondary-color)" />
        <path d="M891.22 155.547C898.325 142.539 915.345 134.301 929.267 141.726C935.534 145.068 940.516 150.98 942.097 157.967C943.932 166.083 940.065 173.822 936.074 180.641C933.907 184.343 931.533 187.968 929.74 191.872C927.883 195.915 926.556 200.588 927.954 204.986C929.212 208.948 932.368 211.83 935.823 213.948C939.637 216.197 943.693 218.007 947.915 219.344C956.604 222.232 965.77 223.416 974.91 222.834C979.452 222.525 983.956 221.798 988.364 220.66C993.053 219.466 997.655 217.952 1002.35 216.784C1010.19 214.837 1019.14 213.87 1026.57 217.779C1033.8 221.578 1037.03 229.524 1038.03 237.254C1039.87 251.528 1034.21 266.34 1023.98 276.336C1019.08 281.131 1012.9 285.094 1006.18 286.714C1000.31 288.129 992.775 288.038 988.105 283.656C982.894 278.764 984.12 270.92 988.259 265.76C993.541 259.175 1002.49 257.593 1010.48 257.433C1019.56 257.251 1028.64 258.602 1037.72 257.762C1042.15 257.417 1046.5 256.369 1050.6 254.657C1054.2 253.073 1057.49 250.849 1060.31 248.094C1065.91 242.653 1069.69 235.404 1071.57 227.868C1073.84 218.804 1073.34 209.279 1071.58 200.175C1070.65 195.481 1069.44 190.845 1067.97 186.289C1067.37 184.366 1064.33 185.189 1064.94 187.124C1070.35 204.268 1073.37 224.091 1062.91 240.009C1058.59 246.759 1051.85 251.606 1044.07 253.563C1035.02 255.81 1025.52 254.699 1016.33 254.365C1007.58 254.047 997.974 254.39 990.476 259.48C984.325 263.655 980.023 271.596 981.882 279.093C983.675 286.323 990.628 289.99 997.583 290.555C1004.88 291.149 1012.06 288.702 1018.19 284.875C1030.94 276.916 1039.41 262.918 1041.19 248.076C1042.11 240.343 1041.17 232.014 1037.66 224.995C1035.81 221.195 1032.93 217.99 1029.35 215.742C1025.78 213.555 1021.66 212.478 1017.51 212.098C1008.1 211.232 999.063 214.46 990.135 216.929C985.575 218.251 980.9 219.143 976.173 219.592C971.586 219.972 966.971 219.897 962.398 219.368C957.86 218.833 953.388 217.841 949.05 216.408C944.799 215.095 940.729 213.256 936.934 210.935C933.586 208.796 930.691 205.732 930.526 201.557C930.347 197.031 932.632 192.796 934.805 188.98C939.097 181.44 944.4 174.066 945.519 165.24C946.5 157.52 943.391 149.91 938.021 144.404C935.331 141.609 932.091 139.399 928.506 137.913C924.921 136.427 921.067 135.696 917.186 135.767C909.22 135.995 901.593 139.457 895.733 144.773C892.827 147.411 890.382 150.514 888.497 153.956C887.527 155.733 890.242 157.321 891.214 155.543L891.22 155.547Z" fill="#3F3D56" />
    </g>
    <defs>
        <clipPath id="clip0_0_1">
            <rect width="551" height="369" fill="white" transform="translate(816)" />
        </clipPath>
    </defs>
</svg>